Coordinates
version=1
nRows=19
nColumns=24
inDegrees=yes

Units are S.I. units (second, meters, Newtons, ...)
Angles are in degrees.

endheader
time	pelvis_tilt	pelvis_list	pelvis_rotation	pelvis_tx	pelvis_ty	pelvis_tz	hip_flexion_r	hip_adduction_r	hip_rotation_r	knee_angle_r	ankle_angle_r	subtalar_angle_r	mtp_angle_r	hip_flexion_l	hip_adduction_l	hip_rotation_l	knee_angle_l	ankle_angle_l	subtalar_angle_l	mtp_angle_l	lumbar_extension	lumbar_bending	lumbar_rotation
      3.50500000	    -13.32661604	     11.76985034	    -12.25510047	      1.46964838	     -0.02391187	     -0.41817427	     17.68295676	    -18.31292601	      1.33378974	    -56.49672647	    -25.80513339	     10.43190921	     40.09421607	     29.64938077	      6.98762890	    -21.20849737	    -14.99426474	     -9.57294265	      4.75146580	     10.88109914	     14.15448324	    -13.36299183	     10.25190362
      3.51000000	    -13.21504593	     11.65633542	    -12.06551045	      1.47570092	     -0.02272678	     -0.41920104	     18.18726854	    -18.18702723	      1.39263260	    -57.34243071	    -25.40734958	     10.60989490	     40.46361332	     28.97284727	      7.21047446	    -21.04199372	    -14.67078721	     -9.23263438	      5.10828748	     10.82711933	     13.99892594	    -13.29777381	      9.93180728
      3.51500000	    -13.05591445	     11.48825258	    -11.89626736	      1.48169019	     -0.02140799	     -0.42020590	     18.61309963	    -17.99175604	      1.45572997	    -58.06465665	    -25.18949803	     10.68595287	     41.42625167	     28.23002246	      7.39053820	    -20.77626098	    -14.34646923	     -8.89038121	      5.37402978	     10.53593777	     13.77824752	    -13.18509088	      9.58736951
      3.52000000	    -13.03669447	     11.32052093	    -11.64704936	      1.48769273	     -0.02030325	     -0.42128484	     19.17273325	    -17.78216136	      1.47166484	    -58.80141186	    -24.88391545	     11.04478149	     41.82220028	     27.64455109	      7.55454082	    -20.48278815	    -14.01899220	     -8.68558316	      5.56509467	     10.62028347	     13.69990188	    -13.05827048	      9.19440195
      3.52500000	    -12.98730031	     11.12429965	    -11.37676777	      1.49368625	     -0.01917270	     -0.42239636	     19.66753932	    -17.55336628	      1.45454470	    -59.46567543	    -24.60891613	     11.46503850	     42.33533001	     27.02180144	      7.70748516	    -20.12947651	    -13.69638569	     -8.48243462	      5.71282167	     10.65360498	     13.57911962	    -12.91045189	      8.77551531
      3.53000000	    -12.88705102	     10.91354277	    -11.07391017	      1.49979900	     -0.01798304	     -0.42358536	     20.05233112	    -17.34261863	      1.35599707	    -60.01035286	    -24.41538632	     11.73396960	     43.37661537	     26.31524378	      7.89396137	    -19.64586170	    -13.33817681	     -8.28309106	      5.69691372	     10.50057207	     13.41580194	    -12.75984407	      8.30003804
      3.53500000	    -12.87306103	     10.69517412	    -10.80776885	      1.50568880	     -0.01697662	     -0.42464841	     20.58647242	    -17.06320380	      1.34313657	    -60.60918088	    -24.12943238	     12.24020200	     43.76962718	     25.74387983	      7.98783616	    -19.30171592	    -13.04969065	     -8.04708360	      5.87319048	     10.56566440	     13.32926898	    -12.58108010	      7.94458520
      3.54000000	    -12.78832810	     10.47028042	    -10.44688993	      1.51163326	     -0.01587275	     -0.42589643	     20.97550791	    -16.84504078	      1.19452708	    -61.08759893	    -23.94301871	     12.61485025	     44.69391404	     25.07542919	      8.16011234	    -18.72640620	    -12.72837178	     -7.87877847	      5.81615220	     10.35589061	     13.14694421	    -12.43000572	      7.42092122
      3.54500000	    -12.78294011	     10.24234661	    -10.15206130	      1.51751907	     -0.01490737	     -0.42697368	     21.48962486	    -16.55365716	      1.15642683	    -61.57888309	    -23.67996238	     13.16569246	     45.08937610	     24.50720662	      8.24203036	    -18.37565036	    -12.43021539	     -7.67715699	      5.97534528	     10.38537878	     13.07476465	    -12.24441696	      7.00145366
      3.55000000	    -12.71154682	     10.01012147	     -9.78156796	      1.52344479	     -0.01391477	     -0.42821165	     21.88073358	    -16.32555658	      0.97711984	    -61.98909726	    -23.43595594	     13.53073514	     45.81302262	     23.85380504	      8.38814737	    -17.79273919	    -12.11516026	     -7.49787198	      5.89848731	     10.20167658	     12.91871824	    -12.08138617	      6.50382910
      3.55500000	    -12.70520762	      9.78288435	     -9.46711664	      1.52929121	     -0.01302993	     -0.42931292	     22.37993120	    -16.04227814	      0.90328025	    -62.39686913	    -23.15936357	     14.02874240	     46.16621317	     23.28864191	      8.46497644	    -17.42957454	    -11.81922396	     -7.30932563	      6.03728618	     10.22201361	     12.84818271	    -11.89860559	      6.07517134
      3.56000000	    -12.64101293	      9.54575904	     -9.09148777	      1.53516308	     -0.01212540	     -0.43053580	     22.77322959	    -15.80536171	      0.70532878	    -62.73797120	    -22.87870013	     14.33524351	     46.69083886	     22.64838405	      8.58216257	    -16.87705426	    -11.50921714	     -7.14276643	      5.98475269	     10.10043807	     12.70436477	    -11.72755656	      5.59024184
      3.56500000	    -12.63242950	      9.32513922	     -8.76524696	      1.54095164	     -0.01133337	     -0.43165145	     23.26536971	    -15.53790900	      0.59903437	    -63.07371019	    -22.56785713	     14.73190082	     46.95788637	     22.08937627	      8.65354473	    -16.51615796	    -11.21876477	     -6.96450163	      6.12114706	     10.13769406	     12.63433204	    -11.55262902	      5.16970558
      3.57000000	    -12.57377802	      9.08599443	     -8.39029350	      1.54676514	     -0.01051172	     -0.43286630	     23.66352862	    -15.29692512	      0.38625682	    -63.34887272	    -22.24147599	     14.94036114	     47.25211224	     21.46161668	      8.74295491	    -16.01357673	    -10.91028266	     -6.81379846	      6.11002624	     10.09517284	     12.50282580	    -11.37445702	      4.69776235
      3.57500000	    -12.56058973	      8.87238108	     -8.04934832	      1.55249583	     -0.00981937	     -0.43402376	     24.14627822	    -15.05434812	      0.23951592	    -63.61684297	    -21.87761636	     15.20725581	     47.41297472	     20.90802277	      8.81230897	    -15.64972611	    -10.62900662	     -6.63618245	      6.24244337	     10.15373088	     12.42980500	    -11.20497582	      4.28616874
      3.58000000	    -12.52717867	      8.63938413	     -7.67561040	      1.55821367	     -0.00910649	     -0.43522000	     24.58063739	    -14.81127080	      0.03238499	    -63.83246610	    -21.49889430	     15.33954539	     47.49716289	     20.32444976	      8.87360442	    -15.21344959	    -10.33719257	     -6.48848736	      6.32499488	     10.18884423	     12.32516300	    -11.02879671	      3.82364542
      3.58500000	    -12.48913674	      8.41016146	     -7.30903782	      1.56390237	     -0.00844110	     -0.43641676	     25.01354039	    -14.57538894	     -0.18232121	    -64.01624931	    -21.08717531	     15.39673372	     47.50336081	     19.74040247	      8.92948482	    -14.78105857	    -10.04839862	     -6.33680178	      6.38762194	     10.22219812	     12.22102687	    -10.85028295	      3.38756014
      3.59000000	    -12.45165232	      8.17971420	     -6.94240290	      1.56955956	     -0.00781522	     -0.43762084	     25.44591522	    -14.34140184	     -0.40850351	    -64.16446829	    -20.64894708	     15.37996557	     47.42685118	     19.16191733	      8.97540833	    -14.34521005	     -9.76550398	     -6.18428000	      6.44371590	     10.25157440	     12.11988613	    -10.66699338	      2.95686186
      3.59500000	    -12.41457802	      7.94678679	     -6.57483637	      1.57520069	     -0.00722704	     -0.43882245	     25.87408824	    -14.10659766	     -0.64502579	    -64.27419849	    -20.18753599	     15.28902566	     47.26508124	     18.58842229	      9.01013348	    -13.90192447	     -9.49035552	     -6.02967748	      6.48539155	     10.26976494	     12.02092689	    -10.48022703	      2.53262442
